<?xml version="1.0" encoding="UTF-8" standalone="no" ?>
<!DOCTYPE svg PUBLIC "-//W3C//DTD SVG 1.1//EN" "http://www.w3.org/Graphics/SVG/1.1/DTD/svg11.dtd">
<svg xmlns="http://www.w3.org/2000/svg" xmlns:xlink="http://www.w3.org/1999/xlink" version="1.1" width="1280" height="1024" viewBox="0 0 1280 1024" xml:space="preserve">
<desc>Created with Fabric.js 4.4.0</desc>
<defs>
</defs>
<g transform="matrix(1 0 0 1 640 512)" id="background-logo"  >
<rect style="stroke: none; stroke-width: 0; stroke-dasharray: none; stroke-linecap: butt; stroke-dashoffset: 0; stroke-linejoin: miter; stroke-miterlimit: 4; fill: rgb(41,43,47); fill-rule: nonzero; opacity: 1;"  paint-order="stroke"  x="-640" y="-512" rx="0" ry="0" width="1280" height="1024" />
</g>
<g transform="matrix(1.9211538461538462 0 0 1.9211538461538462 640 388.8438158637386)" id="logo-logo"  >
<g style=""  paint-order="stroke"   >
		<g transform="matrix(0.34664964303375545 0 0 0.34664964303375545 -26.363895849582548 -13.589528205187605)"  >
<linearGradient id="SVGID_25_3_3_868892" gradientUnits="userSpaceOnUse" gradientTransform="matrix(1 0 0 1 0 0)"  x1="0" y1="264.43" x2="911.58" y2="85.44">
<stop offset="0%" style="stop-color:rgb(35,221,231);stop-opacity: 1"/>
<stop offset="100%" style="stop-color:rgb(97,91,255);stop-opacity: 1"/>
</linearGradient>
<path style="stroke: none; stroke-width: 1; stroke-dasharray: none; stroke-linecap: butt; stroke-dashoffset: 0; stroke-linejoin: miter; stroke-miterlimit: 4; fill: url(#SVGID_25_3_3_868892); fill-rule: nonzero; opacity: 1;"  paint-order="stroke"  transform=" translate(-457.4065657057801, -159.01965646885438)" d="M 670.67 194.27 C 673.75 196.67000000000002 674.3 201.12 671.9 204.20000000000002 C 669.5 207.28000000000003 665.05 207.83 661.97 205.43 C 527.87 100.46000000000001 472.54 138.57 413.97 195.92000000000002 C 414.04 199.32000000000002 414.1 202.71 412.41 204.39000000000001 C 410.72 206.07000000000002 407.27000000000004 206.02 403.83000000000004 205.97000000000003 C 402.63000000000005 207.17000000000002 401.43000000000006 208.37000000000003 400.22 209.58000000000004 C 391.47 218.33000000000004 382.53000000000003 227.27000000000004 373.16 236.07000000000005 C 373.98 240.23000000000005 374.8 244.39000000000004 373.03000000000003 246.01000000000005 C 371.26000000000005 247.63000000000005 366.91 246.70000000000005 362.55 245.78000000000006 L 362.55 245.78000000000006 C 352.57 254.65000000000006 342.04 263.2300000000001 330.73 271.13000000000005 L 330.74 271.14000000000004 C 330.22 273.75000000000006 329.69 276.37000000000006 327.61 277.74000000000007 C 325.52000000000004 279.12000000000006 321.88 279.25000000000006 318.23 279.39000000000004 L 318.22 279.38000000000005 C 306.12 286.88000000000005 293.11 293.53000000000003 278.94000000000005 298.96000000000004 L 278.96000000000004 298.97 C 278.67 302.15000000000003 278.39000000000004 305.34000000000003 275.65000000000003 306.26000000000005 C 272.91 307.19000000000005 267.72 305.86000000000007 262.52000000000004 304.53000000000003 L 262.50000000000006 304.52000000000004 C 240.95000000000005 310.88000000000005 216.83000000000004 314.42 189.37000000000006 313.99000000000007 L 189.38000000000005 314.00000000000006 C 188.87000000000006 315.6700000000001 188.36000000000004 317.34000000000003 185.38000000000005 317.86000000000007 C 182.40000000000006 318.38000000000005 176.95000000000005 317.74000000000007 172.25000000000006 316.5900000000001 C 167.56000000000006 315.4400000000001 163.62000000000006 313.7600000000001 159.69000000000005 312.0800000000001 L 159.68000000000006 312.0700000000001 C 115.26000000000006 307.1400000000001 62.87000000000006 292.5400000000001 5.684341886080802e-14 264.4400000000001 C 0.26000000000005685 264.1300000000001 0.5200000000000569 263.8300000000001 0.7800000000000569 263.5200000000001 C 3.4400000000000572 260.3400000000001 6.130000000000057 256.7800000000001 8.810000000000056 252.8900000000001 C 179.33000000000007 328.2400000000001 268.96000000000004 300.2400000000001 332.76000000000005 251.8800000000001 C 265.95000000000005 285.73000000000013 173.90000000000003 293.9400000000001 24.56000000000006 226.3600000000001 C 26.68000000000006 222.2700000000001 28.77000000000006 218.0300000000001 30.820000000000057 213.6600000000001 C 210.78000000000006 294.92000000000013 304.09000000000003 262.2400000000001 371.45000000000005 209.9500000000001 C 301.06000000000006 242.9900000000001 203.48000000000005 250.2300000000001 44.660000000000025 180.06000000000012 C 46.260000000000026 175.6300000000001 47.78000000000002 171.15000000000012 49.230000000000025 166.64000000000013 C 238.14000000000001 250.35000000000014 337.38 221.42000000000013 408.1 171.84000000000012 C 334.67 203.2500000000001 231.29000000000002 207.84000000000012 58.73000000000002 131.27000000000012 C 59.75000000000002 126.51000000000012 60.68000000000002 121.76000000000012 61.51000000000002 117.03000000000013 C 255.47000000000003 203.72000000000014 359.5 185.73000000000013 432.28 143.49000000000012 C 355.38 167.41000000000014 247.57999999999998 161.79000000000013 66.82999999999998 74.56000000000012 C 67.23999999999998 69.48000000000012 67.58999999999999 64.41000000000011 67.87999999999998 59.350000000000115 C 304.51 174.64000000000013 413.37 148.28000000000011 492.21 100.0100000000001 C 497.09999999999997 95.91000000000011 501.90999999999997 91.8100000000001 506.65 87.7600000000001 C 537.18 61.7000000000001 565.4499999999999 37.57000000000011 599.37 26.290000000000106 C 666.45 -11.929999999999893 747.4200000000001 -20.779999999999895 911.5699999999999 85.44000000000011 C 914.8499999999999 87.55000000000011 915.8 91.9300000000001 913.6899999999999 95.21000000000011 C 911.5799999999999 98.49000000000011 907.1999999999999 99.44000000000011 903.92 97.33000000000011 C 782.38 18.680000000000106 708.5899999999999 5.440000000000111 651.9399999999999 20.060000000000116 C 692.78 23.310000000000116 742.92 44.420000000000115 810.18 94.21000000000012 C 813.3199999999999 96.52000000000012 814 100.94000000000013 811.68 104.08000000000013 C 809.37 107.22000000000013 804.9499999999999 107.90000000000012 801.81 105.59000000000013 C 707.64 35.89000000000013 649.14 25.45000000000013 602.2199999999999 41.190000000000126 C 597.42 43.99000000000012 592.6999999999999 46.940000000000126 588.0199999999999 50.010000000000126 C 630.3099999999998 45.39000000000013 682.2099999999998 62.90000000000013 755.3899999999999 120.19000000000014 C 758.4699999999999 122.59000000000015 759.0199999999999 127.04000000000013 756.6199999999999 130.12000000000015 C 754.2199999999999 133.20000000000016 749.7699999999999 133.75000000000014 746.6899999999999 131.35000000000014 C 653.1999999999999 58.16000000000014 596.81 54.00000000000014 549.91 77.20000000000013 C 545.81 80.24000000000014 541.68 83.29000000000013 537.5 86.34000000000013 C 580.8 78.12000000000013 634.39 93.77000000000012 711.71 154.29000000000013 C 714.7900000000001 156.69000000000014 715.34 161.14000000000013 712.94 164.22000000000014 C 710.5400000000001 167.30000000000015 706.09 167.85000000000014 703.0100000000001 165.45000000000013 C 591.1800000000001 77.91000000000012 532.45 90.35000000000014 480.5100000000001 130.63000000000014 C 525.6400000000001 114.20000000000013 582.1500000000001 124.98000000000013 670.6700000000001 194.27000000000015 z" stroke-linecap="round" />
</g>
		<g transform="matrix(0.34664964303375545 0 0 0.34664964303375545 27.673041003384697 14.285201262308561)"  >
<linearGradient id="SVGID_26_4_4_868893" gradientUnits="userSpaceOnUse" gradientTransform="matrix(1 0 0 1 0 0)"  x1="159.68" y1="312.06" x2="1066.93" y2="130.82">
<stop offset="0%" style="stop-color:rgb(97,91,255);stop-opacity: 1"/>
<stop offset="100%" style="stop-color:rgb(35,221,231);stop-opacity: 1"/>
</linearGradient>
<path style="stroke: none; stroke-width: 1; stroke-dasharray: none; stroke-linecap: butt; stroke-dashoffset: 0; stroke-linejoin: miter; stroke-miterlimit: 4; fill: url(#SVGID_26_4_4_868893); fill-rule: nonzero; opacity: 1;"  paint-order="stroke"  transform=" translate(-613.29, -239.43147868666003)" d="M 189.37 313.99 C 296.95 379.37 364.74 390 417.6 376.35 C 377.40000000000003 373.15000000000003 328.19000000000005 352.64000000000004 262.51 304.52000000000004 C 267.71 302.77000000000004 272.90999999999997 301.02000000000004 278.09999999999997 299.28000000000003 C 278.37999999999994 299.17 278.65999999999997 299.07000000000005 278.93999999999994 298.96000000000004 L 278.93999999999994 298.96000000000004 C 366.56999999999994 361.30000000000007 422.28 370.33000000000004 467.29999999999995 355.24 C 472.09999999999997 352.44 476.8299999999999 349.48 481.50999999999993 346.41 C 440.00999999999993 350.94 389.24999999999994 334.15000000000003 318.2099999999999 279.39000000000004 L 330.7199999999999 271.14000000000004 L 330.7199999999999 271.14000000000004 C 419.5499999999999 338.48 474.0799999999999 341.77000000000004 519.6499999999999 319.22 C 523.7299999999999 316.20000000000005 527.8399999999999 313.16 531.9999999999999 310.12 C 489.5999999999999 318.16 437.2999999999999 303.27 362.52999999999986 245.79000000000002 L 373.1399999999999 236.09000000000003 L 373.1299999999999 236.08000000000004 C 480.70999999999987 318.03000000000003 538.1499999999999 305.29 589.0699999999999 265.78000000000003 C 544.77 281.92 489.5199999999999 271.85 403.80999999999995 205.99000000000004 L 413.94999999999993 195.94000000000003 L 413.94999999999993 195.94000000000003 C 553.68 302.57000000000005 606.0899999999999 250.14000000000004 669.3299999999999 186.87000000000003 C 742.8499999999999 113.32000000000004 830.1999999999999 25.970000000000027 1066.9199999999998 130.85000000000002 C 1063.8999999999999 134.59000000000003 1060.9399999999998 138.43000000000004 1058.0399999999997 142.38000000000002 C 889.2199999999998 68.49000000000002 800.1999999999998 96.48000000000002 736.7399999999998 144.60000000000002 C 802.9599999999998 111.04000000000002 893.9799999999998 102.67000000000002 1041.0099999999998 168.33 C 1038.6799999999998 172.36 1036.4099999999999 176.5 1034.2099999999998 180.79000000000002 C 857.1699999999998 102.09000000000002 764.8499999999998 134.68 698.0599999999998 186.53000000000003 C 767.6999999999998 153.84000000000003 863.9599999999998 146.39000000000004 1019.7999999999998 214.18000000000004 C 1018.2299999999998 218.54000000000005 1016.7199999999998 223.02000000000004 1015.2599999999999 227.60000000000002 C 829.6599999999999 146.64000000000004 731.5699999999999 175.47000000000003 661.4799999999999 224.59000000000003 C 734.1499999999999 193.51000000000005 836.1499999999999 188.69000000000003 1005.52 262.84000000000003 C 1004.41 267.45000000000005 1003.3299999999999 272.13000000000005 1002.28 276.87 C 811.99 193.07999999999998 709.3 211.14 637.25 252.97 C 712.94 229.44 818.58 234.52 994.21 317.85 C 993.36 322.64000000000004 992.5300000000001 327.46000000000004 991.71 332.31 C 761.95 222.56 655.04 248.86 577.3 296.45 C 572.41 300.55 567.6099999999999 304.64 562.87 308.69 C 532.34 334.75 504.07 358.88 470.15 370.15999999999997 C 403.29999999999995 408.23999999999995 322.65999999999997 417.15999999999997 159.65999999999997 312.10999999999996 L 189.34999999999997 314.03 L 189.34999999999997 314.03 z" stroke-linecap="round" />
</g>
</g>
</g>
<g transform="matrix(1.9211538461538462 0 0 1.9211538461538462 637.59101566256 629.4471165191371)" id="text-logo"  >
<g style=""  paint-order="stroke"   >
		<g transform="matrix(1 0 0 1 0 0)" id="text-logo-path-0"  >
<path style="stroke: none; stroke-width: 0; stroke-dasharray: none; stroke-linecap: butt; stroke-dashoffset: 0; stroke-linejoin: miter; stroke-miterlimit: 4; fill: rgb(36,217,231); fill-rule: nonzero; opacity: 1;"  paint-order="stroke"  transform=" translate(-166.3, 19.845000000000002)" d="M 2.12 0 L 14.32 0 L 14.32 -4.27 L 11.53 -4.27 L 11.53 -35.39 L 14.32 -35.39 L 14.32 -39.69 L 2.12 -39.69 L 2.12 -35.39 L 4.9 -35.39 L 4.9 -4.27 L 2.12 -4.27 Z M 28.13 0 L 34.76 0 L 34.76 -27.7 L 50.08 0 L 56.77 0 L 56.77 -39.69 L 50.14 -39.69 L 50.14 -11.96 L 34.82 -39.69 L 28.13 -39.69 Z M 71.03 0 L 77.66 0 L 77.66 -27.7 L 92.98 0 L 99.67 0 L 99.67 -39.69 L 93.04 -39.69 L 93.04 -11.96 L 77.72 -39.69 L 71.03 -39.69 Z M 113.51 -27.64 L 113.51 -11.05 C 113.51 -2.88 121.26 0.48 128.01 0.48 C 132.28 0.48 135.76 -0.64 138.46 -2.88 C 141.15 -5.09 142.52 -8.14 142.52 -12.02 L 142.52 -28.64 C 142.52 -36.81 134.77 -40.17 128.01 -40.17 C 123.75 -40.17 120.26 -39.05 117.57 -36.81 C 114.88 -34.57 113.51 -31.51 113.51 -27.64 Z M 120.14 -13.26 L 120.14 -25.67 C 120.14 -28.85 120.72 -31.18 121.87 -32.67 C 122.99 -34.15 125.05 -34.91 128.01 -34.91 C 133.25 -34.91 135.89 -32.36 135.89 -26.4 L 135.89 -14.02 C 135.89 -10.84 135.31 -8.51 134.19 -7.02 C 133.04 -5.54 130.98 -4.78 128.01 -4.78 C 122.78 -4.78 120.14 -7.3 120.14 -13.26 Z M 155.57 -14.68 L 172.01 -14.68 L 172.01 -20.4 L 155.57 -20.4 Z M 182.85 -34.42 L 193.57 -34.42 L 193.57 0 L 200.2 0 L 200.2 -34.42 L 210.88 -34.42 L 210.88 -39.69 L 182.85 -39.69 Z M 224 0 L 248.37 0 L 248.37 -5.27 L 230.63 -5.27 L 230.63 -17.98 L 241.41 -17.98 L 241.41 -23.25 L 230.63 -23.25 L 230.63 -34.36 L 246.49 -34.36 L 246.49 -39.69 L 224 -39.69 Z M 261.57 -26.4 L 261.57 -12.53 C 261.57 -8.51 262.88 -5.33 265.51 -3.06 C 268.11 -0.79 271.47 0.36 275.62 0.36 C 279.1 0.36 282.37 -0.54 284.55 -1.82 C 286.73 -3.09 288.22 -4.39 289.03 -5.69 L 285.37 -8.87 C 285.34 -8.84 285.22 -8.66 284.95 -8.33 C 284.4 -7.6 284.25 -7.54 283.52 -6.87 C 282.8 -6.21 282.07 -5.96 280.89 -5.51 C 279.71 -5.06 278.19 -4.9 276.38 -4.9 C 273.77 -4.9 271.78 -5.72 270.35 -7.33 C 268.93 -8.93 268.2 -11.02 268.2 -13.59 L 268.2 -27.28 C 268.2 -29.4 269.05 -31.18 270.78 -32.63 C 272.5 -34.06 274.71 -34.78 277.44 -34.78 C 278.62 -34.78 279.65 -34.57 280.56 -34.18 C 281.43 -33.75 282.1 -33.3 282.55 -32.85 C 283.01 -32.36 283.49 -31.7 284.07 -30.88 L 288.46 -33.54 C 286.61 -37.87 282.64 -40.05 276.56 -40.05 C 268.14 -40.2 261.51 -35.09 261.57 -26.4 Z M 302.72 0 L 309.35 0 L 309.35 -17.98 L 323.85 -17.98 L 323.85 0 L 330.48 0 L 330.48 -39.69 L 323.85 -39.69 L 323.85 -23.25 L 309.35 -23.25 L 309.35 -39.69 L 302.72 -39.69 Z" stroke-linecap="round" />
</g>
</g>
</g>
<g transform="matrix(1.9211538461538462 0 0 1.9211538461538462 639.7459274038462 727.6163943942913)" id="tagline-1d19aea8-0804-4a09-8740-5f8282a0f8ca-logo"  >
<g style=""  paint-order="stroke"   >
		<g transform="matrix(1 0 0 1 0 0)" id="tagline-1d19aea8-0804-4a09-8740-5f8282a0f8ca-logo-path-0"  >
<path style="stroke: none; stroke-width: 0; stroke-dasharray: none; stroke-linecap: butt; stroke-dashoffset: 0; stroke-linejoin: miter; stroke-miterlimit: 4; fill: rgb(127,216,88); fill-rule: nonzero; opacity: 1;"  paint-order="stroke"  transform=" translate(-96.44, 8.209999999999999)" d="M 11.02 -4.44 L 11.02 -4.44 Q 11.02 -2.25 9.53 -1.01 Q 8.05 0.23 5.41 0.23 L 5.41 0.23 Q 2.76 0.23 1.06 -0.62 L 1.06 -0.62 L 1.06 -2.97 Q 1.98 -2.55 3.15 -2.22 Q 4.32 -1.89 5.52 -1.89 L 5.52 -1.89 Q 7.01 -1.89 7.76 -2.53 Q 8.51 -3.17 8.51 -4.25 L 8.51 -4.25 Q 8.51 -5.01 8.18 -5.53 Q 7.84 -6.05 7.1 -6.5 Q 6.35 -6.95 5.11 -7.43 L 5.11 -7.43 Q 3.93 -7.91 3.07 -8.53 Q 2.21 -9.15 1.72 -10.07 Q 1.24 -10.99 1.24 -12.33 L 1.24 -12.33 Q 1.24 -14.35 2.66 -15.5 Q 4.07 -16.65 6.37 -16.65 L 6.37 -16.65 Q 7.64 -16.65 8.74 -16.38 Q 9.84 -16.1 10.79 -15.66 L 10.79 -15.66 L 9.98 -13.62 Q 9.11 -14.01 8.16 -14.26 Q 7.22 -14.51 6.3 -14.51 L 6.3 -14.51 Q 5.04 -14.51 4.4 -13.91 Q 3.77 -13.32 3.77 -12.35 L 3.77 -12.35 Q 3.77 -11.59 4.09 -11.09 Q 4.42 -10.58 5.13 -10.15 Q 5.84 -9.73 7.01 -9.22 L 7.01 -9.22 Q 8.3 -8.67 9.2 -8.06 Q 10.1 -7.45 10.56 -6.59 Q 11.02 -5.73 11.02 -4.44 Z M 27.19 -14.28 L 27.19 0 L 24.66 0 L 24.66 -14.28 L 20.1 -14.28 L 20.1 -16.42 L 31.72 -16.42 L 31.72 -14.28 L 27.19 -14.28 Z M 52.62 0 L 49.96 0 L 48.41 -4.74 L 42.55 -4.74 L 41.01 0 L 38.34 0 L 44.11 -16.49 L 46.87 -16.49 L 52.62 0 Z M 43.26 -6.9 L 47.75 -6.9 L 46.23 -11.52 Q 46.16 -11.8 46.01 -12.29 Q 45.86 -12.79 45.71 -13.32 Q 45.56 -13.85 45.47 -14.24 L 45.47 -14.24 Q 45.31 -13.46 45.11 -12.73 Q 44.92 -12.01 44.78 -11.52 L 44.78 -11.52 L 43.26 -6.9 Z M 62.47 -16.42 L 66.91 -16.42 Q 69.87 -16.42 71.3 -15.25 Q 72.73 -14.08 72.73 -11.68 L 72.73 -11.68 Q 72.73 -10.42 72.3 -9.56 Q 71.88 -8.69 71.2 -8.14 Q 70.52 -7.59 69.74 -7.29 L 69.74 -7.29 L 74.08 0 L 71.19 0 L 67.53 -6.65 L 65.02 -6.65 L 65.02 0 L 62.47 0 L 62.47 -16.42 Z M 66.77 -14.31 L 66.77 -14.31 L 65.02 -14.31 L 65.02 -8.72 L 66.84 -8.72 Q 68.52 -8.72 69.32 -9.44 Q 70.13 -10.17 70.13 -11.59 L 70.13 -11.59 Q 70.13 -13.06 69.31 -13.69 Q 68.49 -14.31 66.77 -14.31 Z M 89.47 -14.28 L 89.47 0 L 86.94 0 L 86.94 -14.28 L 82.39 -14.28 L 82.39 -16.42 L 94 -16.42 L 94 -14.28 L 89.47 -14.28 Z M 129.77 -16.42 L 129.77 0 L 127.21 0 L 127.21 -7.5 L 120.13 -7.5 L 120.13 0 L 117.58 0 L 117.58 -16.42 L 120.13 -16.42 L 120.13 -9.61 L 127.21 -9.61 L 127.21 -16.42 L 129.77 -16.42 Z M 150.37 -2.14 L 150.37 0 L 141.61 0 L 141.61 -16.42 L 150.37 -16.42 L 150.37 -14.31 L 144.16 -14.31 L 144.16 -9.61 L 149.98 -9.61 L 149.98 -7.52 L 144.16 -7.52 L 144.16 -2.14 L 150.37 -2.14 Z M 161.44 -16.42 L 165.88 -16.42 Q 168.84 -16.42 170.27 -15.25 Q 171.69 -14.08 171.69 -11.68 L 171.69 -11.68 Q 171.69 -10.42 171.27 -9.56 Q 170.84 -8.69 170.17 -8.14 Q 169.49 -7.59 168.7 -7.29 L 168.7 -7.29 L 173.05 0 L 170.15 0 L 166.5 -6.65 L 163.99 -6.65 L 163.99 0 L 161.44 0 L 161.44 -16.42 Z M 165.74 -14.31 L 165.74 -14.31 L 163.99 -14.31 L 163.99 -8.72 L 165.81 -8.72 Q 167.49 -8.72 168.29 -9.44 Q 169.1 -10.17 169.1 -11.59 L 169.1 -11.59 Q 169.1 -13.06 168.28 -13.69 Q 167.46 -14.31 165.74 -14.31 Z M 191.82 -2.14 L 191.82 0 L 183.06 0 L 183.06 -16.42 L 191.82 -16.42 L 191.82 -14.31 L 185.61 -14.31 L 185.61 -9.61 L 191.43 -9.61 L 191.43 -7.52 L 185.61 -7.52 L 185.61 -2.14 L 191.82 -2.14 Z" stroke-linecap="round" />
</g>
</g>
</g>
</svg>